<?xml version="1.0" encoding="UTF-8" standalone="no"?>
<!DOCTYPE svg PUBLIC "-//W3C//DTD SVG 1.1//EN" "http://www.w3.org/Graphics/SVG/1.1/DTD/svg11.dtd">
<svg width="100%" height="100%" viewBox="0 0 500 500" version="1.1" xmlns="http://www.w3.org/2000/svg" xmlns:xlink="http://www.w3.org/1999/xlink" xml:space="preserve" xmlns:serif="http://www.serif.com/" style="fill-rule:evenodd;clip-rule:evenodd;stroke-linejoin:round;stroke-miterlimit:2;">
    <g id="Layer-1" serif:id="Layer 1" transform="matrix(2.83465,0,0,2.83465,-47.6378,-170.945)">
        <g id="path1" transform="matrix(1.67326,0,0,1.67326,-73.9207,-79.0021)">
            <path d="M76.945,118.674L76.901,118.893L76.901,141.987L56.901,130.44L56.901,141.742L76.901,153.289L76.901,176.383L86.901,182.156L86.901,159.062L106.901,170.609L106.901,135.969L76.945,118.674Z" style="fill:url(#_Linear1);fill-rule:nonzero;"/>
        </g>
        <g id="path12" transform="matrix(1.67326,0,0,1.67326,-73.9207,-79.0021)">
            <path d="M77.121,95.554L97.121,107.101L77.121,118.648L76.959,118.555L76.959,95.799L76.681,95.808L77.121,95.554Z" style="fill:rgb(222,172,168);fill-rule:nonzero;"/>
        </g>
        <g id="path2" transform="matrix(1.67326,0,0,1.67326,-73.9207,-79.0021)">
            <path d="M126.722,89.678L106.801,101.178L86.98,89.735L76.542,95.762L76.681,95.808L77.121,95.554L76.74,118.556L106.901,135.968L137.06,118.556L136.785,118.555L136.623,95.554L136.801,95.497L126.722,89.678Z" style="fill:url(#_Linear2);fill-rule:nonzero;"/>
        </g>
        <g id="path3" transform="matrix(1.67326,0,0,1.67326,-73.9207,-79.0021)">
            <path d="M136.843,118.682L107.119,135.843L107.119,170.484L127.118,158.937L127.118,182.031L137.119,176.257L137.119,153.163L157.119,141.616L157.119,130.315L137.119,141.861L137.119,118.768L136.843,118.682Z" style="fill:url(#_Linear3);fill-rule:nonzero;"/>
        </g>
        <g id="path5" transform="matrix(1.67326,0,0,1.67326,-73.9207,-79.0021)">
            <path d="M126.901,147.515L126.901,124.422L106.901,112.875L106.901,135.969L126.901,147.515Z" style="fill:url(#_Linear4);fill-rule:nonzero;"/>
        </g>
        <g id="path6" transform="matrix(1.67326,0,0,1.67326,-73.9207,-79.0021)">
            <path d="M106.901,159.062L126.901,147.515L106.901,135.969L86.901,147.515L106.901,159.062Z" style="fill:url(#_Linear5);fill-rule:nonzero;"/>
        </g>
        <g id="path7" transform="matrix(1.67326,0,0,1.67326,-73.9207,-79.0021)">
            <path d="M86.901,147.515L106.901,135.969L106.901,112.875L86.901,124.422L86.901,147.515Z" style="fill:url(#_Linear6);fill-rule:nonzero;"/>
        </g>
        <g id="path10" transform="matrix(1.67326,0,0,1.67326,-73.9207,-79.0021)">
            <path d="M76.738,118.648L56.739,130.195L76.738,141.742L76.901,141.648L76.901,118.893L77.179,118.902L76.738,118.648Z" style="fill:url(#_Linear7);fill-rule:nonzero;"/>
        </g>
        <g id="path11" transform="matrix(1.67326,0,0,1.67326,-73.9207,-79.0021)">
            <path d="M77.121,95.554L97.121,107.101L77.121,118.648L76.959,118.555L76.959,95.799L76.681,95.808L77.121,95.554Z" style="fill:url(#_Linear8);fill-rule:nonzero;"/>
        </g>
        <g id="path13" transform="matrix(1.67326,0,0,1.67326,-73.9207,-79.0021)">
            <path d="M137.121,118.648L157.121,130.195L137.121,141.742L136.959,141.648L136.959,118.893L136.681,118.902L137.121,118.648Z" style="fill:url(#_Linear9);fill-rule:nonzero;"/>
        </g>
        <g id="path14" transform="matrix(1.67326,0,0,1.67326,-73.9207,-79.0021)">
            <path d="M136.623,95.554L116.623,107.101L136.623,118.648L136.785,118.555L136.785,95.799L137.063,95.808L136.623,95.554Z" style="fill:url(#_Linear10);fill-rule:nonzero;"/>
        </g>
        <g id="path15" transform="matrix(1.67326,0,0,1.67326,-73.9207,-79.0021)">
            <path d="M107.119,170.484L127.118,158.937L127.118,182.03L126.956,182.124L107.249,170.747L107.118,170.992L107.119,170.484Z" style="fill:rgb(199,113,105);fill-rule:nonzero;"/>
        </g>
        <g id="path16" transform="matrix(1.67326,0,0,1.67326,-73.9207,-79.0021)">
            <path d="M106.901,170.609L86.901,159.062L86.901,182.156L87.063,182.25L106.77,170.872L106.901,171.118L106.901,170.609Z" style="fill:url(#_Linear11);fill-rule:nonzero;"/>
        </g>
    </g>
    <defs>
        <linearGradient id="_Linear1" x1="0" y1="0" x2="1" y2="0" gradientUnits="userSpaceOnUse" gradientTransform="matrix(3.53518e-15,-57.7339,57.7339,3.53518e-15,86.9824,182.203)"><stop offset="0" style="stop-color:rgb(199,113,105);stop-opacity:1"/><stop offset="1" style="stop-color:rgb(247,236,236);stop-opacity:1"/></linearGradient>
        <linearGradient id="_Linear2" x1="0" y1="0" x2="1" y2="0" gradientUnits="userSpaceOnUse" gradientTransform="matrix(49.9997,28.8673,-28.8673,49.9997,83.2478,91.8901)"><stop offset="0" style="stop-color:rgb(222,172,168);stop-opacity:1"/><stop offset="1" style="stop-color:rgb(251,244,244);stop-opacity:1"/></linearGradient>
        <linearGradient id="_Linear3" x1="0" y1="0" x2="1" y2="0" gradientUnits="userSpaceOnUse" gradientTransform="matrix(3.52752e-15,-57.6087,57.6087,3.52752e-15,137.119,176.257)"><stop offset="0" style="stop-color:rgb(106,47,41);stop-opacity:1"/><stop offset="1" style="stop-color:rgb(175,73,68);stop-opacity:1"/></linearGradient>
        <linearGradient id="_Linear4" x1="0" y1="0" x2="1" y2="0" gradientUnits="userSpaceOnUse" gradientTransform="matrix(1.41409e-15,-23.0938,23.0938,1.41409e-15,126.901,147.515)"><stop offset="0" style="stop-color:rgb(199,113,105);stop-opacity:1"/><stop offset="1" style="stop-color:rgb(247,236,236);stop-opacity:1"/></linearGradient>
        <linearGradient id="_Linear5" x1="0" y1="0" x2="1" y2="0" gradientUnits="userSpaceOnUse" gradientTransform="matrix(1.39871e-15,22.8427,-22.8427,1.39871e-15,107.119,136.094)"><stop offset="0" style="stop-color:rgb(222,172,168);stop-opacity:1"/><stop offset="1" style="stop-color:rgb(251,244,244);stop-opacity:1"/></linearGradient>
        <linearGradient id="_Linear6" x1="0" y1="0" x2="1" y2="0" gradientUnits="userSpaceOnUse" gradientTransform="matrix(1.41406e-15,-23.0933,23.0933,1.41406e-15,86.9009,147.515)"><stop offset="0" style="stop-color:rgb(106,47,41);stop-opacity:1"/><stop offset="1" style="stop-color:rgb(175,73,68);stop-opacity:1"/></linearGradient>
        <linearGradient id="_Linear7" x1="0" y1="0" x2="1" y2="0" gradientUnits="userSpaceOnUse" gradientTransform="matrix(1.40835e-15,23.0001,-23.0001,1.40835e-15,76.8196,118.695)"><stop offset="0" style="stop-color:rgb(222,172,168);stop-opacity:1"/><stop offset="1" style="stop-color:rgb(251,244,244);stop-opacity:1"/></linearGradient>
        <linearGradient id="_Linear8" x1="0" y1="0" x2="1" y2="0" gradientUnits="userSpaceOnUse" gradientTransform="matrix(1.41391e-15,-23.0909,23.0909,1.41391e-15,77.1213,118.648)"><stop offset="0" style="stop-color:rgb(199,113,105);stop-opacity:1"/><stop offset="1" style="stop-color:rgb(247,236,236);stop-opacity:1"/></linearGradient>
        <linearGradient id="_Linear9" x1="0" y1="0" x2="1" y2="0" gradientUnits="userSpaceOnUse" gradientTransform="matrix(1.40998e-15,23.0268,-23.0268,1.40998e-15,137.179,118.682)"><stop offset="0" style="stop-color:rgb(222,172,168);stop-opacity:1"/><stop offset="1" style="stop-color:rgb(251,244,244);stop-opacity:1"/></linearGradient>
        <linearGradient id="_Linear10" x1="0" y1="0" x2="1" y2="0" gradientUnits="userSpaceOnUse" gradientTransform="matrix(1.33889e-15,-21.8657,21.8657,1.33889e-15,137.063,118.648)"><stop offset="0" style="stop-color:rgb(106,47,41);stop-opacity:1"/><stop offset="1" style="stop-color:rgb(175,73,68);stop-opacity:1"/></linearGradient>
        <linearGradient id="_Linear11" x1="0" y1="0" x2="1" y2="0" gradientUnits="userSpaceOnUse" gradientTransform="matrix(1.41126e-15,-23.0476,23.0476,1.41126e-15,86.9817,182.157)"><stop offset="0" style="stop-color:rgb(106,47,41);stop-opacity:1"/><stop offset="1" style="stop-color:rgb(175,73,68);stop-opacity:1"/></linearGradient>
    </defs>
</svg>
